<svg width="22" height="33" viewBox="0 0 22 33" fill="none" xmlns="http://www.w3.org/2000/svg">
<g id="compte" clip-path="url(#clip0_8581_59228)">
<path id="Vector" d="M9.04628 16.4707H12.7151C14.8114 16.4714 16.8216 17.2916 18.3042 18.751C19.7868 20.2104 20.6204 22.1896 20.6219 24.2539V31.7156H1.13672V24.2539C1.1382 22.1891 1.97218 20.2095 3.45535 18.75C4.93852 17.2905 6.9495 16.4707 9.04628 16.4707Z" stroke="#96154A" stroke-width="1.3471" stroke-linejoin="round"/>
<path id="Vector_2" d="M11.1111 13.2934C14.6243 13.2934 17.4723 10.489 17.4723 7.02953C17.4723 3.57007 14.6243 0.765625 11.1111 0.765625C7.59797 0.765625 4.75 3.57007 4.75 7.02953C4.75 10.489 7.59797 13.2934 11.1111 13.2934Z" stroke="#96154A" stroke-width="1.3471" stroke-linejoin="round"/>
<path id="Vector_3" d="M8.11719 7.41406C8.14094 8.17995 8.46663 8.90665 9.02519 9.44013C9.58375 9.97361 10.3313 10.272 11.1094 10.272C11.8876 10.272 12.6351 9.97361 13.1937 9.44013C13.7523 8.90665 14.0779 8.17995 14.1017 7.41406" stroke="#F6ABB6" stroke-width="1.3471" stroke-linejoin="round"/>
</g>
<defs>
<clipPath id="clip0_8581_59228">
<rect width="20.8801" height="32.3305" fill="white" transform="translate(0.439453 0.078125)"/>
</clipPath>
</defs>
</svg>
