<svg width="60" height="60" viewBox="0 0 60 60" fill="none" xmlns="http://www.w3.org/2000/svg" aria-hidden="true" style="max-width: none; height: 100%; width: 100%;"><rect width="60" height="60" rx="8" fill="#f6abb6"></rect><g filter="url(#filter0_d)"><path fill-rule="evenodd" clip-rule="evenodd" d="M30 45C38.2843 45 45 38.2843 45 30C45 21.7157 38.2843 15 30 15C21.7157 15 15 21.7157 15 30C15 32.6662 15.6955 35.1698 16.9151 37.3395L15 45L22.6605 43.0849C24.8302 44.3045 27.3338 45 30 45ZM28.75 30C28.75 31.3808 27.6308 32.5 26.25 32.5C24.8692 32.5 23.75 31.3808 23.75 30C23.75 28.6192 24.8692 27.5 26.25 27.5C27.6308 27.5 28.75 28.6192 28.75 30ZM33.75 32.5C35.1308 32.5 36.25 31.3808 36.25 30C36.25 28.6192 35.1308 27.5 33.75 27.5C32.3692 27.5 31.25 28.6192 31.25 30C31.25 31.3808 32.3692 32.5 33.75 32.5Z" fill="white"></path></g><defs><filter id="filter0_d" x="9" y="11" width="42" height="42" filterUnits="userSpaceOnUse" color-interpolation-filters="sRGB"><feFlood flood-opacity="0" result="BackgroundImageFix"></feFlood><feColorMatrix in="SourceAlpha" type="matrix" values="0 0 0 0 0 0 0 0 0 0 0 0 0 0 0 0 0 0 127 0"></feColorMatrix><feOffset dy="2"></feOffset><feGaussianBlur stdDeviation="3"></feGaussianBlur><feColorMatrix type="matrix" values="0 0 0 0 0 0 0 0 0 0 0 0 0 0 0 0 0 0 0.08 0"></feColorMatrix><feBlend mode="normal" in2="BackgroundImageFix" result="effect1_dropShadow"></feBlend><feBlend mode="normal" in="SourceGraphic" in2="effect1_dropShadow" result="shape"></feBlend></filter></defs></svg>