<svg  viewBox="0 0 241 368" fill="none" xmlns="http://www.w3.org/2000/svg">
<path d="M146.825 176.819C101.465 169.154 71.2253 192.99 71.2253 232.309V322.289L0 367.893V232.309C0 153.672 54.4933 98.6414 146.825 109.678V176.819Z" fill="#96154A"/>
<path d="M122.726 40.8515C122.726 48.9311 120.326 56.8292 115.831 63.5472C111.336 70.2652 104.947 75.5012 97.4721 78.5932C89.997 81.6851 81.7717 82.4941 73.8363 80.9179C65.9008 79.3416 58.6117 75.4509 52.8905 69.7377C47.1694 64.0245 43.2732 56.7455 41.6947 48.8211C40.1163 40.8967 40.9265 32.6829 44.0227 25.2183C47.119 17.7537 52.3622 11.3736 59.0896 6.88479C65.817 2.39598 73.7261 7.21726e-05 81.8171 7.21726e-05C87.1921 -0.0100267 92.5162 1.03979 97.484 3.08918C102.452 5.13858 106.966 8.14722 110.766 11.9426C114.567 15.738 117.58 20.2455 119.632 25.2064C121.685 30.1673 122.736 35.4839 122.726 40.8515Z" fill="#96154A"/>
<path d="M163.865 171.377C163.954 173.861 164.848 176.25 166.411 178.185C167.975 180.119 170.125 181.495 172.538 182.107C182.418 183.663 192.394 184.534 202.394 184.713C212.42 184.529 222.421 183.658 232.327 182.107C234.74 181.495 236.89 180.119 238.453 178.185C240.017 176.25 240.911 173.861 241 171.377V118.876C240.902 116.385 240.007 113.991 238.446 112.046C236.885 110.1 234.74 108.707 232.327 108.069C222.421 106.518 212.42 105.647 202.394 105.463C192.394 105.642 182.418 106.513 172.538 108.069C170.124 108.707 167.98 110.1 166.419 112.046C164.858 113.991 163.962 116.385 163.865 118.876V171.377Z" fill="#F6ABB6"/>
</svg>
