<svg width="154" height="41" viewBox="0 0 154 41" fill="none" xmlns="http://www.w3.org/2000/svg">
<g id="Clip path group">
<mask id="mask0_303_504" style="mask-type:luminance" maskUnits="userSpaceOnUse" x="0" y="0" width="154" height="41">
<g id="clip0_1302_22115">
<path id="Vector" d="M153.717 0.536621H0.849365V40.5366H153.717V0.536621Z" fill="white"/>
</g>
</mask>
<g mask="url(#mask0_303_504)">
<g id="Group">
<path id="Vector_2" d="M148.055 0.536621H6.51113C3.38423 0.536621 0.849365 2.7752 0.849365 5.53662V35.5366C0.849365 38.298 3.38423 40.5366 6.51113 40.5366H148.055C151.182 40.5366 153.717 38.298 153.717 35.5366V5.53662C153.717 2.7752 151.182 0.536621 148.055 0.536621Z" fill="black"/>
<path id="Vector_3" d="M148.055 1.33662C149.317 1.33662 150.526 1.77912 151.418 2.56677C152.311 3.35442 152.811 4.42271 152.811 5.53662V35.5366C152.811 36.6505 152.311 37.7188 151.418 38.5064C150.526 39.2941 149.317 39.7366 148.055 39.7366H6.51113C5.24979 39.7366 4.04011 39.2941 3.14821 38.5064C2.25631 37.7188 1.75525 36.6505 1.75525 35.5366V5.53662C1.75525 4.42271 2.25631 3.35442 3.14821 2.56677C4.04011 1.77912 5.24979 1.33662 6.51113 1.33662H148.055ZM148.055 0.536621H6.51113C5.00954 0.536621 3.56945 1.06341 2.50766 2.00109C1.44587 2.93877 0.849365 4.21054 0.849365 5.53662V35.5366C0.849365 36.8627 1.44587 38.1345 2.50766 39.0721C3.56945 40.0098 5.00954 40.5366 6.51113 40.5366H148.055C149.557 40.5366 150.997 40.0098 152.059 39.0721C153.12 38.1345 153.717 36.8627 153.717 35.5366V5.53662C153.717 4.21054 153.12 2.93877 152.059 2.00109C150.997 1.06341 149.557 0.536621 148.055 0.536621Z" fill="white"/>
<path id="Vector_4" d="M78.0078 22.2865C77.0537 22.2885 76.1218 22.5403 75.3297 23.01C74.5377 23.4798 73.9212 24.1464 73.5581 24.9255C73.1951 25.7047 73.1019 26.5614 73.2902 27.3874C73.4785 28.2134 73.94 28.9715 74.6162 29.5659C75.2924 30.1602 76.153 30.5642 77.0891 30.7266C78.0254 30.889 78.995 30.8027 79.8756 30.4784C80.7562 30.1541 81.508 29.6066 82.0363 28.9049C82.5644 28.2033 82.8452 27.3791 82.843 26.5365C82.8521 25.9745 82.7332 25.4165 82.4933 24.8959C82.2532 24.3752 81.897 23.9026 81.4459 23.506C80.9947 23.1095 80.4579 22.7972 79.8673 22.5876C79.2765 22.3781 78.6442 22.2757 78.0078 22.2865ZM78.0078 29.1165C77.4231 29.1526 76.8395 29.0326 76.333 28.7719C75.8266 28.5113 75.4206 28.1221 75.1679 27.655C74.9151 27.1878 74.8275 26.6644 74.9162 26.1527C75.0047 25.6409 75.2657 25.1646 75.6649 24.7856C76.0641 24.4065 76.5833 24.1423 77.1548 24.0273C77.7264 23.9123 78.324 23.9518 78.8698 24.1406C79.4156 24.3295 79.8844 24.6589 80.2153 25.0862C80.5463 25.5135 80.724 26.0188 80.7255 26.5365C80.7437 26.8645 80.6873 27.1925 80.5598 27.5009C80.4323 27.8094 80.2361 28.0922 79.9828 28.3327C79.7295 28.5732 79.4243 28.7664 79.085 28.901C78.7459 29.0356 78.3796 29.1089 78.0078 29.1165ZM67.4543 22.2865C66.5002 22.2885 65.5682 22.5403 64.7762 23.01C63.9842 23.4798 63.3676 24.1464 63.0046 24.9255C62.6416 25.7047 62.5484 26.5614 62.7367 27.3874C62.925 28.2134 63.3864 28.9715 64.0627 29.5659C64.7389 30.1602 65.5995 30.5642 66.5356 30.7266C67.4718 30.889 68.4415 30.8027 69.3221 30.4784C70.2026 30.1541 70.9545 29.6066 71.4828 28.9049C72.0109 28.2033 72.2916 27.3791 72.2894 26.5365C72.2986 25.9745 72.1797 25.4165 71.9398 24.8959C71.6997 24.3752 71.3435 23.9026 70.8923 23.506C70.4412 23.1095 69.9044 22.7972 69.3137 22.5876C68.723 22.3781 68.0907 22.2757 67.4543 22.2865ZM67.4543 29.1165C66.8695 29.1526 66.2859 29.0326 65.7794 28.7719C65.273 28.5113 64.8671 28.1221 64.6144 27.655C64.3616 27.1878 64.274 26.6644 64.3626 26.1527C64.4512 25.6409 64.7122 25.1646 65.1113 24.7856C65.5106 24.4065 66.0298 24.1423 66.6013 24.0273C67.1729 23.9123 67.7704 23.9518 68.3162 24.1406C68.862 24.3295 69.3308 24.6589 69.6618 25.0862C69.9928 25.5135 70.1705 26.0188 70.1719 26.5365C70.1902 26.8645 70.1338 27.1925 70.0063 27.5009C69.8788 27.8094 69.6825 28.0922 69.4292 28.3327C69.1759 28.5732 68.8708 28.7664 68.5315 28.901C68.1924 29.0356 67.826 29.1089 67.4543 29.1165ZM54.9078 23.5965V25.3965H59.7996C59.7228 26.2443 59.3238 27.0443 58.6672 27.6665C58.1765 28.108 57.5863 28.4537 56.9348 28.681C56.2833 28.9084 55.5851 29.0125 54.8852 28.9865C53.4436 28.9865 52.0611 28.4808 51.0419 27.5806C50.0225 26.6805 49.4499 25.4596 49.4499 24.1865C49.4499 22.9135 50.0225 21.6926 51.0419 20.7924C52.0611 19.8922 53.4436 19.3865 54.8852 19.3865C56.2671 19.3684 57.6016 19.8318 58.5993 20.6765L60.0374 19.4065C59.3625 18.817 58.5611 18.3524 57.6803 18.0399C56.7995 17.7274 55.857 17.5732 54.9078 17.5865C53.9012 17.5519 52.8969 17.6971 51.9553 18.0135C51.0138 18.3298 50.1541 18.8108 49.428 19.4275C48.702 20.0443 48.1243 20.7841 47.7298 21.6027C47.3352 22.4213 47.1318 23.3018 47.1318 24.1915C47.1318 25.0812 47.3352 25.9617 47.7298 26.7803C48.1243 27.5989 48.702 28.3388 49.428 28.9555C50.1541 29.5723 51.0138 30.0532 51.9553 30.3696C52.8969 30.6859 53.9012 30.8311 54.9078 30.7965C55.8764 30.8307 56.8423 30.6835 57.742 30.3647C58.6416 30.0458 59.4548 29.5625 60.128 28.9465C61.317 27.7929 61.9506 26.2757 61.8944 24.7165C61.8985 24.3412 61.8643 23.9664 61.7925 23.5965H54.9078ZM106.215 24.9965C105.919 24.2293 105.367 23.5593 104.631 23.0754C103.895 22.5914 103.01 22.3163 102.093 22.2865C101.474 22.2855 100.861 22.3966 100.292 22.6131C99.7228 22.8295 99.2103 23.1467 98.7858 23.5451C98.3613 23.9434 98.0337 24.4144 97.8236 24.9289C97.6133 25.4434 97.5248 25.9906 97.5636 26.5365C97.5538 27.4494 97.8788 28.3405 98.4899 29.0768C99.1011 29.8131 99.9655 30.355 100.954 30.6217C101.943 30.8883 103.002 30.8654 103.975 30.5562C104.948 30.2471 105.781 29.6684 106.351 28.9065L104.709 27.9065C104.464 28.2668 104.117 28.5643 103.702 28.7695C103.286 28.9748 102.818 29.0806 102.342 29.0765C101.851 29.0944 101.366 28.9808 100.95 28.7506C100.533 28.5203 100.205 28.1843 100.009 27.7865L106.453 25.4365L106.215 24.9965ZM99.6471 26.4165C99.6241 26.1059 99.6715 25.7944 99.7867 25.5001C99.9018 25.2059 100.082 24.9349 100.317 24.703C100.552 24.4712 100.838 24.283 101.156 24.1497C101.475 24.0164 101.82 23.9405 102.172 23.9265C102.537 23.9069 102.9 23.9827 103.217 24.1446C103.533 24.3065 103.788 24.5472 103.95 24.8365L99.6471 26.4165ZM94.4156 30.5365H96.5331V18.0365H94.4156V30.5365ZM90.9506 23.2365H90.8714C90.555 22.9184 90.1647 22.6643 89.7269 22.4917C89.2891 22.3191 88.8142 22.2321 88.3349 22.2365C87.0975 22.2895 85.9304 22.7609 85.076 23.5531C84.2214 24.3453 83.7447 25.3974 83.7447 26.4915C83.7447 27.5856 84.2214 28.6378 85.076 29.4299C85.9304 30.2221 87.0975 30.6935 88.3349 30.7465C88.8149 30.755 89.2913 30.6698 89.7297 30.4969C90.1682 30.3241 90.558 30.0678 90.8714 29.7465H90.9506V30.3565C90.9506 31.9865 89.9655 32.8565 88.3802 32.8565C87.8506 32.8462 87.3364 32.6972 86.9029 32.4284C86.4694 32.1595 86.1362 31.783 85.9456 31.3465L84.1112 32.0165C84.4503 32.7688 85.04 33.4124 85.8023 33.8624C86.5644 34.3123 87.4634 34.5474 88.3802 34.5365C90.86 34.5365 92.9096 33.2465 92.9096 30.1065V22.5365H90.9506V23.2365ZM88.5161 29.1165C87.7741 29.0757 87.0777 28.7866 86.5688 28.3082C86.0598 27.8298 85.7763 27.198 85.7763 26.5415C85.7763 25.8851 86.0598 25.2533 86.5688 24.7749C87.0777 24.2964 87.7741 24.0074 88.5161 23.9665C88.8786 23.9803 89.2344 24.0584 89.5621 24.1962C89.8899 24.3339 90.183 24.5284 90.4238 24.7682C90.6647 25.008 90.8485 25.2881 90.9643 25.5919C91.08 25.8957 91.1255 26.2169 91.0978 26.5365C91.1287 26.8572 91.0856 27.1801 90.9711 27.4857C90.8567 27.7912 90.6733 28.0731 90.4319 28.3143C90.1906 28.5555 89.8964 28.7509 89.5671 28.8888C89.2378 29.0267 88.8802 29.1042 88.5161 29.1165ZM116.134 18.0365H111.061V30.5365H113.179V25.7965H116.134C116.738 25.8348 117.344 25.7629 117.914 25.5853C118.485 25.4076 119.008 25.1281 119.451 24.764C119.894 24.4 120.247 23.9593 120.488 23.4694C120.73 22.9794 120.855 22.4508 120.855 21.9165C120.855 21.3822 120.73 20.8536 120.488 20.3637C120.247 19.8738 119.894 19.4331 119.451 19.069C119.008 18.705 118.485 18.4254 117.914 18.2478C117.344 18.0702 116.738 17.9982 116.134 18.0365ZM116.134 24.0365H113.179V19.7765H116.179C116.498 19.7765 116.812 19.8319 117.107 19.9394C117.401 20.047 117.667 20.2046 117.893 20.4033C118.118 20.602 118.297 20.8379 118.418 21.0976C118.54 21.3572 118.603 21.6355 118.603 21.9165C118.603 22.1976 118.54 22.4758 118.418 22.7355C118.297 22.9951 118.118 23.231 117.893 23.4297C117.667 23.6284 117.401 23.7861 117.107 23.8936C116.812 24.0012 116.498 24.0565 116.179 24.0565L116.134 24.0365ZM129.201 22.2465C128.43 22.2045 127.663 22.3631 126.992 22.7025C126.322 23.042 125.78 23.5475 125.431 24.1565L127.299 24.8465C127.488 24.5459 127.771 24.3 128.114 24.1386C128.459 23.9771 128.848 23.9069 129.235 23.9365C129.504 23.9088 129.777 23.9286 130.037 23.9948C130.296 24.0611 130.539 24.1724 130.751 24.3222C130.961 24.4721 131.136 24.6575 131.265 24.8677C131.394 25.0779 131.473 25.3087 131.5 25.5465V25.6665C130.82 25.3504 130.061 25.1857 129.292 25.1865C127.276 25.1865 125.216 26.1865 125.216 28.0065C125.236 28.3934 125.344 28.7727 125.533 29.1221C125.722 29.4714 125.989 29.7836 126.317 30.0401C126.646 30.2967 127.029 30.4923 127.445 30.6153C127.861 30.7384 128.3 30.7864 128.737 30.7565C129.268 30.7825 129.798 30.6832 130.272 30.4688C130.745 30.2544 131.146 29.9327 131.432 29.5365H131.5V30.5365H133.538V25.7265C133.538 23.5365 131.659 22.2665 129.247 22.2665L129.201 22.2465ZM128.941 29.0965C128.25 29.0965 127.288 28.7865 127.288 28.0365C127.288 27.0365 128.488 26.6965 129.553 26.6965C130.225 26.6819 130.89 26.8269 131.478 27.1165C131.406 27.6596 131.115 28.1615 130.657 28.5292C130.199 28.897 129.606 29.1056 128.986 29.1165L128.941 29.0965ZM140.967 22.5365L138.543 27.9565H138.475L135.962 22.5365H133.697L137.468 30.1165L135.316 34.3265H137.524L143.322 22.5365H140.967ZM121.943 30.5365H124.049V18.0365H121.943V30.5365Z" fill="white"/>
<path id="Vector_5" d="M12.6713 8.07732C12.2982 8.46694 12.1078 8.96779 12.1391 9.47732V31.5973C12.1006 32.1077 12.2919 32.6108 12.6713 32.9973L12.7506 33.0773L26.7805 20.6873V20.3873L12.7506 8.00732L12.6713 8.07732Z" fill="url(#paint0_linear_303_504)"/>
<path id="Vector_6" d="M31.4229 24.8173L26.7803 20.6873V20.3873L31.4229 16.2573L31.5248 16.3173L37.0847 19.0973C38.67 19.8873 38.67 21.1873 37.0847 21.9873L31.5475 24.7673L31.4229 24.8173Z" fill="url(#paint1_linear_303_504)"/>
<path id="Vector_7" d="M31.5585 24.7566L26.78 20.5366L12.6709 32.9966C12.9909 33.2481 13.4005 33.3928 13.8286 33.4056C14.2568 33.4184 14.6764 33.2985 15.0149 33.0666L31.5585 24.7566Z" fill="url(#paint2_linear_303_504)"/>
<path id="Vector_8" d="M31.5585 16.3171L15.0149 8.01708C14.6787 7.78199 14.2592 7.65913 13.8305 7.67011C13.4018 7.68108 12.9912 7.82519 12.6709 8.07708L26.78 20.5371L31.5585 16.3171Z" fill="url(#paint3_linear_303_504)"/>
<path id="Vector_9" opacity="0.2" d="M31.4227 24.6655L15.0149 32.9155C14.6888 33.1329 14.2912 33.2505 13.8825 33.2505C13.474 33.2505 13.0764 33.1329 12.7502 32.9155L12.6709 32.9855L12.7502 33.0655C13.0764 33.2829 13.474 33.4005 13.8825 33.4005C14.2912 33.4005 14.6888 33.2829 15.0149 33.0655L31.5585 24.7555L31.4227 24.6655Z" fill="white"/>
<path id="Vector_10" opacity="0.12" d="M12.671 32.8568C12.3073 32.4601 12.129 31.9557 12.1728 31.4468V31.5968C12.1343 32.1071 12.3255 32.6103 12.705 32.9968L12.7842 32.9268L12.671 32.8568Z" fill="white"/>
<path id="Vector_11" opacity="0.12" d="M37.0846 21.8366L31.4229 24.6666L31.5248 24.7566L37.0846 21.9766C37.4128 21.854 37.6976 21.6556 37.9087 21.4022C38.1199 21.1488 38.2499 20.8498 38.2849 20.5366C38.2141 20.8212 38.0686 21.0871 37.8602 21.3129C37.6516 21.5387 37.386 21.7181 37.0846 21.8366Z" fill="white"/>
<path id="Vector_12" opacity="0.25" d="M15.0151 8.15758L37.0847 19.2376C37.386 19.3561 37.6516 19.5355 37.8601 19.7613C38.0687 19.9871 38.2142 20.253 38.2849 20.5376C38.25 20.2244 38.12 19.9254 37.9088 19.672C37.6975 19.4185 37.4128 19.2201 37.0847 19.0976L15.0151 8.01757C13.4411 7.21757 12.1389 7.87758 12.1389 9.47758V9.62758C12.1729 8.02758 13.4411 7.36758 15.0151 8.15758Z" fill="black"/>
<path id="Vector_13" d="M47.5928 13.5362V7.53621H49.665C50.1258 7.51654 50.5865 7.57999 51.0187 7.72269C51.4508 7.86539 51.8457 8.08435 52.1788 8.36621C52.491 8.65456 52.7349 8.995 52.8963 9.3676C53.0576 9.74021 53.1333 10.1375 53.1187 10.5362C53.1333 10.9349 53.0576 11.3322 52.8963 11.7048C52.7349 12.0774 52.491 12.4178 52.1788 12.7062C51.8457 12.9881 51.4508 13.207 51.0187 13.3497C50.5865 13.4924 50.1258 13.5559 49.665 13.5362H47.5928ZM48.4647 12.7962H49.665C50.0089 12.8238 50.3555 12.7844 50.6802 12.6806C51.0049 12.5768 51.2998 12.4112 51.544 12.1955C51.7881 11.9799 51.9757 11.7195 52.0932 11.4327C52.2107 11.146 52.2555 10.8399 52.2241 10.5362C52.2534 10.2329 52.2073 9.9276 52.0891 9.64167C51.9708 9.35573 51.7833 9.09605 51.5395 8.8808C51.2958 8.66555 51.0017 8.49992 50.678 8.39549C50.3541 8.29106 50.0084 8.25035 49.665 8.27621H48.4647V12.7962Z" fill="white" stroke="white" stroke-width="0.2" stroke-miterlimit="10"/>
<path id="Vector_14" d="M54.3418 13.5366V7.53662H55.2024V13.5366H54.3418Z" fill="white" stroke="white" stroke-width="0.2" stroke-miterlimit="10"/>
<path id="Vector_15" d="M58.6786 13.666C58.162 13.6586 57.6603 13.512 57.2405 13.246C56.7715 12.9629 56.4402 12.5346 56.312 12.046L57.1047 11.756C57.2018 12.0815 57.4069 12.374 57.6935 12.596C57.9639 12.8115 58.3142 12.9324 58.6786 12.936C59.0285 12.9463 59.372 12.8511 59.6525 12.666C59.7823 12.5873 59.8876 12.481 59.959 12.3569C60.0302 12.2329 60.065 12.095 60.0601 11.956C60.0692 11.8065 60.0367 11.6573 59.9657 11.5214C59.8947 11.3854 59.7871 11.2669 59.6525 11.176C59.2648 10.9446 58.8363 10.7722 58.3842 10.666C57.8747 10.5504 57.4045 10.3274 57.0141 10.016C56.8628 9.88653 56.7436 9.73088 56.6636 9.5588C56.5838 9.38672 56.545 9.20191 56.5498 9.01598C56.55 8.80226 56.6016 8.59102 56.7012 8.39622C56.8007 8.20143 56.9459 8.02751 57.1273 7.88598C57.5373 7.59751 58.0416 7.43305 58.5655 7.41685C59.0894 7.40065 59.6055 7.53355 60.0375 7.79598C60.3636 8.0014 60.609 8.29154 60.7395 8.62598L59.9469 8.91598C59.8717 8.70845 59.7253 8.52672 59.5279 8.39598C59.2812 8.22207 58.9713 8.13323 58.656 8.14598C58.3454 8.14151 58.0422 8.22959 57.7954 8.39598C57.6853 8.46734 57.5962 8.56077 57.5352 8.66858C57.4741 8.77638 57.443 8.89546 57.4444 9.01598C57.4428 9.12595 57.472 9.23457 57.5293 9.33223C57.5865 9.4299 57.6702 9.51361 57.7727 9.57598C58.0627 9.76538 58.3886 9.9076 58.7352 9.99598C59.0204 10.0713 59.3001 10.1615 59.5732 10.266C59.8139 10.3635 60.0418 10.4843 60.2526 10.626C60.4762 10.7673 60.6555 10.9565 60.7735 11.176C60.9008 11.4167 60.9628 11.6803 60.9547 11.946C60.9598 12.2167 60.8898 12.4845 60.7508 12.726C60.6263 12.9449 60.4389 13.1311 60.2073 13.266C59.986 13.4029 59.7413 13.5075 59.4826 13.576C59.221 13.6407 58.9502 13.671 58.6786 13.666Z" fill="white" stroke="white" stroke-width="0.2" stroke-miterlimit="10"/>
<path id="Vector_16" d="M63.1287 13.5369H62.2568V7.5369H64.5215C65.0759 7.52849 65.6122 7.71147 66.0162 8.0469C66.2163 8.20896 66.3761 8.40599 66.4854 8.62548C66.5947 8.84497 66.6512 9.08212 66.6512 9.3219C66.6512 9.56167 66.5947 9.79883 66.4854 10.0183C66.3761 10.2378 66.2163 10.4348 66.0162 10.5969C65.6122 10.9323 65.0759 11.1153 64.5215 11.1069H63.1287V13.5369ZM63.1287 10.3669H64.6008C64.7636 10.3721 64.9258 10.3462 65.0763 10.291C65.2268 10.2358 65.362 10.1525 65.4727 10.0469C65.584 9.95348 65.6727 9.84103 65.7333 9.71639C65.7939 9.59176 65.8251 9.45753 65.8251 9.3219C65.8251 9.18626 65.7939 9.05204 65.7333 8.9274C65.6727 8.80277 65.584 8.69032 65.4727 8.5969C65.362 8.49129 65.2268 8.40804 65.0763 8.35281C64.9258 8.29758 64.7636 8.27169 64.6008 8.2769H63.1287V10.3669Z" fill="white" stroke="white" stroke-width="0.2" stroke-miterlimit="10"/>
<path id="Vector_17" d="M73.32 12.7575C72.9929 13.0466 72.6046 13.2759 72.1771 13.4324C71.7497 13.5888 71.2915 13.6693 70.8288 13.6693C70.366 13.6693 69.9079 13.5888 69.4804 13.4324C69.053 13.2759 68.6647 13.0466 68.3376 12.7575C67.6974 12.1566 67.3411 11.3626 67.3411 10.5375C67.3411 9.71249 67.6974 8.91851 68.3376 8.31756C68.6647 8.0285 69.053 7.79919 69.4804 7.64274C69.9079 7.48629 70.366 7.40576 70.8288 7.40576C71.2915 7.40576 71.7497 7.48629 72.1771 7.64274C72.6046 7.79919 72.9929 8.0285 73.32 8.31756C73.6429 8.6112 73.8965 8.95877 74.0657 9.33995C74.2348 9.72113 74.3162 10.1283 74.3051 10.5375C74.3215 10.9474 74.2424 11.3558 74.073 11.7377C73.9035 12.1195 73.6472 12.4666 73.32 12.7575ZM68.9831 12.2575C69.2217 12.4764 69.5085 12.6496 69.826 12.7666C70.1435 12.8836 70.4848 12.9418 70.8288 12.9375C71.1731 12.9436 71.5149 12.8862 71.8327 12.7691C72.1505 12.6521 72.4372 12.4778 72.6746 12.2575C73.1631 11.7887 73.4343 11.1747 73.4343 10.5375C73.4343 9.90035 73.1631 9.28643 72.6746 8.81756C72.4372 8.59726 72.1505 8.42303 71.8327 8.30595C71.5149 8.18888 71.1731 8.13153 70.8288 8.13756C70.4848 8.13334 70.1435 8.19152 69.826 8.30848C69.5085 8.42545 69.2217 8.59872 68.9831 8.81756C68.5016 9.28957 68.2352 9.90231 68.2352 10.5375C68.2352 11.1728 68.5016 11.7855 68.9831 12.2575Z" fill="white" stroke="white" stroke-width="0.2" stroke-miterlimit="10"/>
<path id="Vector_18" d="M75.5847 13.5366V7.53662H76.6491L79.9443 12.2066V11.0466V7.53662H80.8275V13.5366H79.9103L76.5132 8.64662V9.79662V13.5366H75.5847Z" fill="white" stroke="white" stroke-width="0.2" stroke-miterlimit="10"/>
<path id="Vector_19" d="M82.3787 13.5366V7.53662H83.2506V13.5366H82.3787Z" fill="white" stroke="white" stroke-width="0.2" stroke-miterlimit="10"/>
<path id="Vector_20" d="M84.7454 13.5367V7.53671H87.2026C87.7119 7.5322 88.2048 7.6963 88.584 7.99671C88.7733 8.14172 88.9241 8.32169 89.0258 8.52387C89.1276 8.72605 89.1777 8.9455 89.1729 9.16671C89.1756 9.43609 89.089 9.70028 88.9237 9.92671C88.7566 10.1414 88.5253 10.311 88.2557 10.4167C88.5826 10.5154 88.8697 10.6961 89.0823 10.9367C89.2904 11.1818 89.4017 11.4804 89.3993 11.7867C89.4051 12.0172 89.3532 12.246 89.2476 12.4569C89.142 12.6678 88.985 12.8555 88.7879 13.0067C88.3948 13.3297 87.8752 13.5053 87.3384 13.4967L84.7454 13.5367ZM85.6173 10.1067H87.2026C87.3509 10.1143 87.4993 10.0921 87.6365 10.0419C87.7737 9.9917 87.8964 9.91471 87.9952 9.81671C88.1871 9.65054 88.2971 9.4241 88.301 9.18671C88.3116 8.94858 88.2184 8.7159 88.0405 8.53671C87.9453 8.44345 87.8279 8.36998 87.6967 8.32156C87.5655 8.27315 87.4238 8.251 87.2818 8.25671H85.6173V10.1067ZM85.6173 12.7967H87.3837C87.5371 12.8012 87.6897 12.7758 87.8306 12.7222C87.9715 12.6686 88.0974 12.5882 88.199 12.4867C88.3945 12.3023 88.5038 12.0593 88.5048 11.8067C88.4979 11.5562 88.3847 11.3171 88.1877 11.1367C88.0786 11.0355 87.9465 10.9556 87.8002 10.9022C87.6539 10.8488 87.4966 10.8231 87.3384 10.8267H85.6173V12.7967Z" fill="white" stroke="white" stroke-width="0.2" stroke-miterlimit="10"/>
<path id="Vector_21" d="M90.5769 13.5366V7.53662H91.4375V12.7966H94.3816V13.5366H90.5769Z" fill="white" stroke="white" stroke-width="0.2" stroke-miterlimit="10"/>
<path id="Vector_22" d="M99.4547 8.27662H96.3634V10.1766H99.1489V10.8966H96.3634V12.7966H99.4547V13.5366H95.4915V7.53662H99.4547V8.27662Z" fill="white" stroke="white" stroke-width="0.2" stroke-miterlimit="10"/>
<path id="Vector_23" d="M104.731 13.666C104.211 13.6575 103.706 13.5111 103.282 13.246C102.817 12.9611 102.49 12.5331 102.365 12.046L103.157 11.756C103.255 12.0815 103.46 12.374 103.746 12.596C104.017 12.8115 104.367 12.9324 104.731 12.936C105.081 12.9448 105.424 12.8497 105.705 12.666C105.835 12.5873 105.94 12.481 106.012 12.3569C106.083 12.2329 106.118 12.095 106.113 11.956C106.122 11.8065 106.09 11.6573 106.019 11.5214C105.947 11.3854 105.84 11.2669 105.705 11.176C105.313 10.9449 104.881 10.7726 104.426 10.666C103.919 10.5504 103.453 10.3273 103.067 10.016C102.913 9.88805 102.793 9.73268 102.712 9.56023C102.632 9.38778 102.595 9.20223 102.603 9.01598C102.603 8.80226 102.654 8.59102 102.754 8.39622C102.853 8.20143 102.999 8.02751 103.18 7.88598C103.59 7.59751 104.094 7.43305 104.618 7.41685C105.142 7.40065 105.658 7.53355 106.09 7.79598C106.416 8.0014 106.662 8.29154 106.792 8.62598L106 8.91598C105.925 8.70548 105.774 8.52266 105.569 8.39598C105.328 8.22107 105.021 8.13194 104.709 8.14598C104.398 8.14151 104.095 8.22959 103.848 8.39598C103.737 8.46683 103.646 8.55991 103.583 8.66765C103.52 8.77539 103.487 8.89474 103.486 9.01598C103.487 9.1255 103.517 9.23322 103.575 9.33049C103.632 9.42775 103.714 9.51183 103.814 9.57598C104.107 9.76135 104.432 9.90322 104.777 9.99598C105.066 10.0698 105.35 10.16 105.626 10.266C105.865 10.3658 106.093 10.4864 106.305 10.626C106.529 10.7673 106.708 10.9565 106.826 11.176C106.948 11.4183 107.01 11.6808 107.007 11.946C107.012 12.2167 106.943 12.4845 106.804 12.726C106.679 12.9449 106.492 13.1311 106.26 13.266C106.039 13.4029 105.794 13.5075 105.535 13.576C105.274 13.6407 105.003 13.671 104.731 13.666Z" fill="white" stroke="white" stroke-width="0.2" stroke-miterlimit="10"/>
<path id="Vector_24" d="M110.62 13.6666C110.281 13.6793 109.943 13.6279 109.628 13.5158C109.314 13.4037 109.03 13.2335 108.797 13.0166C108.322 12.5485 108.074 11.9345 108.106 11.3066V7.53662H108.978V11.3366C108.955 11.7552 109.103 12.1671 109.397 12.4966C109.55 12.646 109.74 12.7631 109.952 12.8392C110.163 12.9154 110.391 12.9487 110.62 12.9366C110.841 12.9528 111.063 12.9253 111.271 12.8561C111.478 12.7869 111.666 12.6778 111.82 12.5366C112.117 12.2085 112.27 11.7965 112.25 11.3766V7.53662H113.122V11.3066C113.156 11.933 112.912 12.5464 112.443 13.0166C112.21 13.2351 111.927 13.4063 111.612 13.5186C111.297 13.6308 110.959 13.6813 110.62 13.6666Z" fill="white" stroke="white" stroke-width="0.2" stroke-miterlimit="10"/>
<path id="Vector_25" d="M114.538 13.5369V7.5369H116.802C117.357 7.52849 117.893 7.71147 118.297 8.0469C118.503 8.20585 118.666 8.40301 118.776 8.62428C118.886 8.84555 118.939 9.08547 118.931 9.3269C118.931 9.7339 118.766 10.1275 118.467 10.4369C118.178 10.7447 117.778 10.9563 117.335 11.0369L119.237 13.5369H118.206L116.349 11.1069H115.387V13.5369H114.538ZM115.41 10.3869H116.814C117.144 10.3928 117.465 10.2853 117.708 10.0869C117.828 9.99116 117.924 9.87378 117.988 9.74268C118.052 9.61158 118.085 9.4698 118.082 9.3269C118.078 9.05598 117.962 8.79573 117.753 8.5969C117.641 8.48998 117.504 8.40595 117.351 8.35068C117.2 8.29541 117.034 8.27023 116.87 8.2769H115.41V10.3869Z" fill="white" stroke="white" stroke-width="0.2" stroke-miterlimit="10"/>
</g>
</g>
</g>
<defs>
<linearGradient id="paint0_linear_303_504" x1="25.5349" y1="9.24732" x2="8.8837" y2="28.1024" gradientUnits="userSpaceOnUse">
<stop stop-color="#00A0FF"/>
<stop offset="0.01" stop-color="#00A1FF"/>
<stop offset="0.26" stop-color="#00BEFF"/>
<stop offset="0.51" stop-color="#00D2FF"/>
<stop offset="0.76" stop-color="#00DFFF"/>
<stop offset="1" stop-color="#00E3FF"/>
</linearGradient>
<linearGradient id="paint1_linear_303_504" x1="39.1569" y1="20.5373" x2="11.7653" y2="20.5373" gradientUnits="userSpaceOnUse">
<stop stop-color="#FFE000"/>
<stop offset="0.41" stop-color="#FFBD00"/>
<stop offset="0.78" stop-color="#FFA500"/>
<stop offset="1" stop-color="#FF9C00"/>
</linearGradient>
<linearGradient id="paint2_linear_303_504" x1="28.9655" y1="22.8366" x2="6.37897" y2="48.4013" gradientUnits="userSpaceOnUse">
<stop stop-color="#FF3A44"/>
<stop offset="1" stop-color="#C31162"/>
</linearGradient>
<linearGradient id="paint3_linear_303_504" x1="9.11536" y1="0.717079" x2="19.1973" y2="12.1335" gradientUnits="userSpaceOnUse">
<stop stop-color="#32A071"/>
<stop offset="0.07" stop-color="#2DA771"/>
<stop offset="0.48" stop-color="#15CF74"/>
<stop offset="0.8" stop-color="#06E775"/>
<stop offset="1" stop-color="#00F076"/>
</linearGradient>
</defs>
</svg>
