<svg width="48" height="59" viewBox="0 0 48 59" fill="none" xmlns="http://www.w3.org/2000/svg">
<path d="M46.8082 14.0143H24.7413V1.18547C24.7419 1.03034 24.7115 0.876625 24.6518 0.733181C24.5922 0.589737 24.5044 0.459382 24.3936 0.349686C24.2829 0.23999 24.1512 0.153178 24.0063 0.0940992C23.8614 0.0350206 23.7062 0.00486085 23.5495 0.00548514H7.06486C6.14924 -0.0312888 5.23569 0.117143 4.37999 0.441757C3.52428 0.76637 2.74439 1.26035 2.088 1.89346C-0.01906 4.01271 6.02441e-06 7.11846 6.02441e-06 7.23174V57.82C6.02441e-06 58.133 0.12557 58.4331 0.349072 58.6544C0.572573 58.8757 0.875703 59 1.19178 59H46.8082C47.1243 59 47.4274 58.8757 47.6509 58.6544C47.8744 58.4331 48 58.133 48 57.82V15.1849C47.9975 14.8736 47.8708 14.5758 47.6476 14.3566C47.4244 14.1373 47.1227 14.0143 46.8082 14.0143ZM45.6164 16.3743V28.0749H24.7413V16.3743H45.6164ZM45.6164 30.4349V42.1357H24.7413V30.4349H45.6164ZM2.38356 7.23174C2.38356 7.23174 2.38356 4.95199 3.81369 3.55016C4.25975 3.13959 4.78583 2.8236 5.35965 2.6215C5.93347 2.41941 6.54292 2.33547 7.15066 2.3749H22.4054V14.0237H2.38356V7.23174ZM22.3625 16.3743V42.1357H2.38356V16.3743H22.3625ZM2.38356 56.6495V44.4956H22.3577V56.6495H2.38356ZM24.7461 56.6495V44.4956H45.6164V56.6495H24.7461Z" fill="#96154A"/>
<path d="M16.3027 37.1379H8.75635C7.92949 37.1379 7.1365 36.8126 6.55182 36.2337C5.96714 35.6549 5.63867 34.8697 5.63867 34.051V23.6152C5.63867 22.7965 5.96714 22.0113 6.55182 21.4324C7.1365 20.8535 7.92949 20.5283 8.75635 20.5283H16.3027C17.1292 20.5296 17.9214 20.8552 18.5058 21.4338C19.0902 22.0124 19.4191 22.7969 19.4204 23.6152V34.051C19.4191 34.8693 19.0902 35.6537 18.5058 36.2324C17.9214 36.811 17.1292 37.1366 16.3027 37.1379ZM8.75635 22.8883C8.56164 22.8883 8.37492 22.9649 8.23724 23.1012C8.09957 23.2376 8.02222 23.4224 8.02222 23.6152V34.051C8.02222 34.2438 8.09957 34.4286 8.23724 34.5649C8.37492 34.7013 8.56164 34.7779 8.75635 34.7779H16.3027C16.4974 34.7779 16.6841 34.7013 16.8218 34.5649C16.9595 34.4286 17.0368 34.2438 17.0368 34.051V23.6152C17.0368 23.4224 16.9595 23.2376 16.8218 23.1012C16.6841 22.9649 16.4974 22.8883 16.3027 22.8883H8.75635Z" fill="#F6ABB6"/>
</svg>
