<svg width="48" height="59" viewBox="0 0 48 59" fill="none" xmlns="http://www.w3.org/2000/svg">
<path d="M23.9695 51.8158C21.954 51.8136 19.9425 51.6382 17.9572 51.2918H17.8862C17.1651 51.1101 16.5224 50.7006 16.054 50.1247C15.5855 49.5488 15.3165 48.8373 15.2871 48.0964V37.8587C15.31 37.1117 15.5759 36.3922 16.0447 35.809C16.5136 35.2258 17.1598 34.8104 17.8862 34.6255H17.9572C21.9362 33.9243 26.0076 33.9243 29.9866 34.6255H30.0577C30.7787 34.8072 31.4214 35.2166 31.8899 35.7926C32.3583 36.3685 32.6273 37.08 32.6567 37.8209V48.0964C32.6266 48.8371 32.3573 49.5483 31.889 50.124C31.4207 50.6998 30.7783 51.1094 30.0577 51.2918H29.9866C27.9998 51.6384 25.9866 51.8138 23.9695 51.8158ZM18.4069 48.9838C22.089 49.6257 25.8549 49.6257 29.5369 48.9838C29.7439 48.9217 29.927 48.7979 30.0615 48.6292C30.1961 48.4605 30.2756 48.2549 30.2896 48.0398V37.8587C30.277 37.6432 30.1979 37.4369 30.0632 37.2679C29.9284 37.0989 29.7446 36.9756 29.5369 36.9147C25.8551 36.2704 22.0888 36.2704 18.4069 36.9147C18.1954 36.9774 18.0087 37.1043 17.8729 37.2777C17.7371 37.4511 17.659 37.6625 17.6495 37.8823V48.0445C17.6639 48.2585 17.7445 48.4628 17.8801 48.6293C18.0158 48.7958 18.1998 48.9163 18.4069 48.9743V48.9838Z" fill="#F6ABB6"/>
<path d="M46.5747 59H1.18358C1.02798 59.0006 0.873801 58.9705 0.729925 58.9114C0.586048 58.8523 0.455301 58.7655 0.345274 58.6558C0.235247 58.5461 0.148116 58.4157 0.0888593 58.2723C0.0296026 58.1288 -0.000590185 57.9751 3.59802e-05 57.82V15.2456C-0.00138208 15.0658 0.0391344 14.888 0.11839 14.7264L7.02552 0.689136C7.09844 0.541698 7.20137 0.411043 7.3277 0.305405C7.45403 0.199768 7.60102 0.121436 7.75934 0.075513L7.85874 0.0471653C7.96621 0.0149986 8.07795 -0.000842643 8.19016 3.4524e-05H39.7718C40.023 -0.00127503 40.268 0.0778342 40.4708 0.225663C40.6736 0.373492 40.8235 0.58224 40.8985 0.821309L47.7393 14.7264C47.7523 14.749 47.7634 14.7727 47.7725 14.7972L47.9098 15.1276C47.9725 15.277 48.0032 15.4378 47.9997 15.5996C48.0038 17.2382 47.4732 18.8336 46.4881 20.1452C45.503 21.4567 44.1167 22.4132 42.5385 22.8704C40.9603 23.3275 39.2758 23.2606 37.7391 22.6795C36.2024 22.0985 34.897 21.0349 34.0197 19.6493C33.3357 20.7215 32.3914 21.6042 31.2742 22.2157C30.157 22.8273 28.9031 23.148 27.6286 23.148C26.3541 23.148 25.1003 22.8273 23.9831 22.2157C22.8659 21.6042 21.9216 20.7215 21.2375 19.6493C20.3602 21.0349 19.0548 22.0985 17.5181 22.6795C15.9814 23.2606 14.2969 23.3275 12.7187 22.8704C11.1405 22.4132 9.75424 21.4567 8.7691 20.1452C7.78397 18.8336 7.25342 17.2382 7.25749 15.5996H9.62457C9.62457 16.9766 10.1733 18.2972 11.1499 19.2709C12.1265 20.2446 13.451 20.7916 14.8322 20.7916C16.2133 20.7916 17.5379 20.2446 18.5145 19.2709C19.4911 18.2972 20.0397 16.9766 20.0397 15.5996C20.0397 15.2867 20.1645 14.9865 20.3864 14.7652C20.6084 14.5439 20.9094 14.4196 21.2233 14.4196C21.5372 14.4196 21.8382 14.5439 22.0602 14.7652C22.2821 14.9865 22.4068 15.2867 22.4068 15.5996C22.4068 16.9766 22.9555 18.2972 23.9321 19.2709C24.9087 20.2446 26.2333 20.7916 27.6144 20.7916C28.9955 20.7916 30.3201 20.2446 31.2967 19.2709C32.2733 18.2972 32.822 16.9766 32.822 15.5996C32.822 15.2867 32.9467 14.9865 33.1687 14.7652C33.3906 14.5439 33.6916 14.4196 34.0055 14.4196C34.3194 14.4196 34.6205 14.5439 34.8424 14.7652C35.0644 14.9865 35.1891 15.2867 35.1891 15.5996C35.1744 16.2815 35.2947 16.9594 35.5429 17.5949C35.7911 18.2304 36.1624 18.811 36.6357 19.3034C37.1089 19.7958 37.6748 20.1905 38.301 20.4648C38.9272 20.7392 39.6015 20.8879 40.2854 20.9025C40.9693 20.9171 41.6493 20.7972 42.2867 20.5498C42.9241 20.3023 43.5064 19.932 44.0003 19.4602C44.4942 18.9884 44.89 18.4243 45.1652 17.7999C45.4404 17.1756 45.5896 16.5033 45.6042 15.8215L45.5758 15.7506L38.9953 2.37893H8.834L2.37186 15.5193V56.64H45.3959V35.2489H47.763V57.82C47.763 57.9753 47.7322 58.1292 47.6725 58.2726C47.6127 58.4161 47.5251 58.5464 47.4147 58.656C47.3043 58.7657 47.1733 58.8525 47.0291 58.9115C46.885 58.9705 46.7306 59.0006 46.5747 59Z" fill="#96154A"/>
</svg>
