<svg width="60" height="42" viewBox="0 0 60 42" fill="none" xmlns="http://www.w3.org/2000/svg">
<path d="M59.1048 39.0605H46.5964V27.5952C47.599 28.1275 48.697 28.4141 49.819 28.4141C54.0322 28.4141 57.4458 24.4968 57.4458 19.6923C57.4458 15.3382 54.6409 11.7212 50.9887 11.0661C51.0841 10.5201 51.1438 9.97413 51.1438 9.41451C51.1438 5.01948 48.0167 1.42975 44.1735 1.42975C40.3302 1.42975 37.1912 5.00583 37.1912 9.41451C37.1912 9.93318 37.2389 10.4518 37.3225 10.9569C36.3557 10.9842 35.4128 11.2162 34.5176 11.6393C34.3863 11.7076 34.2908 11.8031 34.1953 11.9123L23.8711 0.296869C23.525 -0.0989564 22.964 -0.0989564 22.6179 0.296869L9.5365 15.038C9.3694 15.2291 9.27392 15.4884 9.27392 15.7614V39.0605H0.895166C0.405809 39.0605 0 39.5246 0 40.0842C0 40.6438 0.405809 41.1079 0.895166 41.1079H59.1048C59.5942 41.1079 60 40.6438 60 40.0842C60 39.5246 59.5942 39.0605 59.1048 39.0605ZM35.4366 39.0605H11.0643V16.1981L23.2504 2.45344L35.4366 16.1845V39.0605ZM41.297 39.0605H37.227V28.4005C37.3105 28.4005 37.406 28.4141 37.4896 28.4141C38.8383 28.4141 40.1392 27.991 41.297 27.2403V39.0605ZM44.806 39.0605H43.0873V21.262H41.297V24.7562C40.1751 25.8617 38.695 26.4214 37.227 26.3531V15.7614C37.227 15.4884 37.1315 15.2291 36.9644 15.038L35.5441 13.4274C36.1766 13.168 36.8212 13.0179 37.5015 13.0179C37.7879 13.0179 38.0744 13.0452 38.4325 13.1134C38.7547 13.168 39.077 13.0315 39.2799 12.7313C39.4828 12.4446 39.5305 12.0488 39.3992 11.7076C39.1367 10.9842 39.0054 10.2198 39.0054 9.42816C39.0054 6.15236 41.3328 3.49077 44.1973 3.49077C47.0619 3.49077 49.3774 6.15236 49.3774 9.42816C49.3774 10.1789 49.258 10.9159 49.0074 11.612C48.8999 11.926 48.9357 12.2808 49.1028 12.5675C49.2699 12.8541 49.5445 13.0179 49.8428 13.0179C53.0654 13.0179 55.6793 16.0207 55.6793 19.6923C55.6793 23.364 53.0535 26.3668 49.8428 26.3668C48.697 26.3668 47.5751 25.9846 46.6203 25.2612V21.262H44.8299V39.0605H44.806ZM19.7056 22.7634C18.7627 23.0227 18.0824 23.9782 18.0465 25.1247V31.8674C18.0824 32.9866 18.7627 33.9421 19.7533 34.215C20.923 34.4471 22.0688 34.5563 23.2266 34.5563C24.3843 34.5563 25.5779 34.4334 26.7834 34.2014C27.7263 33.9421 28.4066 32.9866 28.4424 31.8674V25.0974C28.4066 23.9782 27.7263 23.0227 26.7356 22.7497C24.3963 22.2857 22.1046 22.2857 19.7056 22.7497V22.7634ZM26.3656 24.7562C26.5208 24.7971 26.6401 24.9746 26.6521 25.1383V31.8264C26.6521 32.0039 26.5208 32.1813 26.4253 32.2086C24.2888 32.6317 22.2121 32.6317 20.1233 32.2086C19.9682 32.1677 19.8488 31.9902 19.8369 31.8264V25.152C19.8369 24.9609 19.9682 24.7835 20.0637 24.7562C21.1379 24.5378 22.2001 24.4422 23.2624 24.4422C24.3246 24.4422 25.3392 24.5514 26.3656 24.7562Z" fill="#96134B"/>
</svg>
