<svg width="57" height="46" viewBox="0 0 57 46" fill="none" xmlns="http://www.w3.org/2000/svg">
<g clip-path="url(#clip0_9236_17848)">
<path d="M49.6415 28.1527C49.635 28.4162 49.5734 28.6694 49.4659 28.8745C49.3584 29.0796 49.2108 29.2257 49.0451 29.291C47.688 29.6618 46.2992 29.6618 44.9421 29.291C44.7764 29.2257 44.6288 29.0796 44.5213 28.8745C44.4139 28.6694 44.3523 28.4162 44.3457 28.1527V22.5876C44.3526 22.3246 44.4144 22.0721 44.5218 21.8675C44.6293 21.6629 44.7767 21.5171 44.9421 21.452C46.2992 21.0811 47.688 21.0811 49.0451 21.452C49.2106 21.5171 49.358 21.6629 49.4654 21.8675C49.5729 22.0721 49.6346 22.3246 49.6415 22.5876V28.1527Z" stroke="#96154A" stroke-width="1.5" stroke-linejoin="round"/>
<path d="M41.3886 10.4697C41.377 10.9375 41.4266 11.4041 41.5347 11.8416C41.6428 12.2791 41.807 12.6785 42.0176 13.0159C42.2282 13.3532 42.4808 13.6216 42.7602 13.8049C43.0397 13.9882 43.3403 14.0827 43.644 14.0827C43.9477 14.0827 44.2482 13.9882 44.5277 13.8049C44.8071 13.6216 45.0597 13.3532 45.2703 13.0159C45.4809 12.6785 45.6451 12.2791 45.7532 11.8416C45.8613 11.4041 45.911 10.9375 45.8993 10.4697C45.8826 10.9422 45.9286 11.4149 46.0344 11.8591C46.1402 12.3033 46.3036 12.7095 46.5146 13.0531C46.7257 13.3966 46.98 13.6703 47.262 13.8573C47.5439 14.0443 47.8476 14.1407 48.1546 14.1407C48.4616 14.1407 48.7653 14.0443 49.0473 13.8573C49.3292 13.6703 49.5835 13.3966 49.7946 13.0531C50.0056 12.7095 50.169 12.3033 50.2749 11.8591C50.3807 11.4149 50.4266 10.9422 50.4099 10.4697C50.3932 10.9422 50.4392 11.4149 50.545 11.8591C50.6508 12.3033 50.8142 12.7095 51.0253 13.0531C51.2364 13.3966 51.4906 13.6703 51.7726 13.8573C52.0546 14.0443 52.3583 14.1407 52.6652 14.1407C52.9722 14.1407 53.2759 14.0443 53.5579 13.8573C53.8399 13.6703 54.0941 13.3966 54.3052 13.0531C54.5163 12.7095 54.6797 12.3033 54.7855 11.8591C54.8913 11.4149 54.9373 10.9422 54.9206 10.4697L54.8721 10.2894L52.4481 2.63326V2.61523H41.3101L41.2734 2.63326L38.8359 10.292V33.5206H54.8554V21.2033" stroke="#96154A" stroke-width="1.5" stroke-linejoin="round"/>
</g>
<path d="M4.08984 25.9033H28.9408" stroke="#96154A" stroke-width="1.5" stroke-linejoin="round"/>
<path d="M20.4355 20.7852H28.9415" stroke="#96154A" stroke-width="1.5" stroke-linejoin="round"/>
<path d="M3.77539 20.7852H12.2814" stroke="#96154A" stroke-width="1.5" stroke-linejoin="round"/>
<path d="M20.4355 15.375H28.9415" stroke="#96154A" stroke-width="1.5" stroke-linejoin="round"/>
<path d="M3.77539 15.375H12.2814" stroke="#96154A" stroke-width="1.5" stroke-linejoin="round"/>
<path d="M3.77539 10.5186H28.941" stroke="#96154A" stroke-width="1.5" stroke-linejoin="round"/>
<path d="M12.5832 34.9807H28.9408V1.94238H20.6022M12.5832 34.9807V1.94238M12.5832 34.9807H4.08984V1.94238H20.6022M20.6022 34.7144V1.94238" stroke="#96154A" stroke-width="1.5" stroke-linejoin="round"/>
<path d="M18.2426 13.7998H14.777C14.2886 13.7998 13.8926 14.2832 13.8926 14.8796V20.7889C13.8926 21.3852 14.2886 21.8687 14.777 21.8687H18.2426C18.731 21.8687 19.127 21.3852 19.127 20.7889V14.8796C19.127 14.2832 18.731 13.7998 18.2426 13.7998Z" stroke="#96154A" stroke-width="1.5" stroke-linejoin="round"/>
<defs>
<clipPath id="clip0_9236_17848">
<rect width="16.9868" height="32.2754" fill="white" transform="translate(38.377 1.89844)"/>
</clipPath>
</defs>
</svg>
