<svg width="42" height="27" viewBox="0 0 42 27" fill="none" xmlns="http://www.w3.org/2000/svg">
<path d="M10.4962 15.6767C13.2588 15.6767 15.4983 13.4069 15.4983 10.6069C15.4983 7.80694 13.2588 5.53711 10.4962 5.53711C7.73365 5.53711 5.49414 7.80694 5.49414 10.6069C5.49414 13.4069 7.73365 15.6767 10.4962 15.6767Z" stroke="#96154A" stroke-width="1.19708" stroke-linejoin="round"/>
<path d="M5.60254 9.54883H18.6281" stroke="#96154A" stroke-width="1.19708" stroke-linejoin="round"/>
<path d="M3.23828 25.9978C3.79715 24.6969 4.47887 23.4538 5.27392 22.286C6.0084 21.1246 6.95772 20.1184 8.06947 19.3227C9.19451 18.5263 10.5827 18.2087 11.9362 18.438C13.4622 18.7473 14.6555 19.9011 15.98 20.7239C17.2178 21.4829 18.5944 21.9799 20.0269 22.1851C21.4593 22.3903 22.9179 22.2994 24.3148 21.9179" stroke="#96154A" stroke-width="1.19708" stroke-linejoin="round"/>
<path d="M31.2996 26.3141C32.1387 25.2093 32.5811 23.8477 32.554 22.4538C32.554 19.5554 30.8113 17.1953 28.6597 17.1953C26.5081 17.1953 24.7655 19.5462 24.7655 22.4538C24.7436 23.7831 25.1437 25.0843 25.9069 26.1657" stroke="#96154A" stroke-width="1.19708" stroke-linejoin="round"/>
<path d="M1.24414 1.17578V26.3144H41.2058L33.576 13.2022C29.2789 5.81252 20.758 1.17578 11.4558 1.17578H1.24414Z" stroke="#F6ABB6" stroke-width="1.19708" stroke-linejoin="round"/>
</svg>
