<svg width="28" height="31" viewBox="0 0 28 31" fill="none" xmlns="http://www.w3.org/2000/svg">
<g clip-path="url(#clip0_7516_14730)">
<path d="M0.785209 10.1533V19.4874C0.784729 20.4423 1.0324 21.3808 1.50366 22.2097C1.97492 23.0386 2.65339 23.7292 3.47181 24.213C5.52682 25.4236 9.12782 27.5003 11.6165 28.9227C12.4295 29.3884 13.3481 29.6357 14.2837 29.6407C15.2192 29.6456 16.1403 29.4082 16.9582 28.9512C18.8844 27.8733 21.4862 26.4224 23.5286 25.2656C24.3741 24.7891 25.0781 24.0945 25.5679 23.2533C26.0578 22.4122 26.316 21.4548 26.3158 20.4799V11.0225C26.3171 10.0627 26.0675 9.11946 25.5921 8.28729C25.1167 7.45512 24.4322 6.7633 23.6072 6.28119C21.1185 4.82717 17.9795 2.99385 15.4877 1.53984C14.6522 1.04632 13.7008 0.786133 12.732 0.786133C11.7631 0.786133 10.8117 1.04632 9.97621 1.53984L3.46239 5.41194C2.64343 5.89827 1.96536 6.59187 1.49566 7.42371C1.02597 8.25556 0.78102 9.19663 0.785209 10.1533Z" stroke="#F6ABB6" stroke-width="1.32249" stroke-linejoin="round"/>
<path d="M13.8423 29.4342V17.2963C13.8449 16.3385 13.5979 15.3967 13.126 14.5648C12.654 13.7329 11.9736 13.0399 11.1525 12.555L3.92543 8.30671C3.60801 8.1205 3.24741 8.02179 2.87996 8.02052C2.51252 8.01925 2.15124 8.11548 1.83256 8.29949C1.51388 8.4835 1.24907 8.7488 1.06484 9.06861C0.880609 9.38842 0.783455 9.75145 0.783203 10.1211" stroke="#F6ABB6" stroke-width="1.32249" stroke-linejoin="round"/>
<path d="M11.6069 19.5243C11.6074 19.0204 11.4769 18.5251 11.2283 18.0876C10.9797 17.6501 10.6216 17.2856 10.1897 17.0304L6.38762 14.7924C6.22091 14.6934 6.03117 14.6404 5.83756 14.6387C5.64395 14.6371 5.45334 14.6869 5.285 14.7831C5.11666 14.8793 4.97655 15.0185 4.87884 15.1867C4.78113 15.3548 4.72927 15.5459 4.72852 15.7407V20.6654C4.72823 21.1688 4.85888 21.6636 5.10749 22.1005C5.35609 22.5375 5.71399 22.9014 6.14566 23.1562C6.82438 23.5545 8.80714 24.7145 10.1866 25.5174C10.3301 25.6022 10.4934 25.6473 10.6598 25.6481C10.8263 25.6489 10.9899 25.6053 11.1342 25.5218C11.2785 25.4383 11.3983 25.3179 11.4813 25.1728C11.5643 25.0276 11.6076 24.863 11.6069 24.6955V19.5243Z" fill="#96154A"/>
</g>
<defs>
<clipPath id="clip0_7516_14730">
<rect width="27.1111" height="30.4173" fill="white"/>
</clipPath>
</defs>
</svg>
