<svg class="icon" width="33" height="33" viewBox="0 0 33 33" fill="none" xmlns="http://www.w3.org/2000/svg">
            <path d="M23.9795 27.4157H7.82494C7.65112 27.4157 7.48447 27.3458 7.36156 27.2214C7.23865 27.097 7.16962 26.9283 7.16962 26.7523V24.0406C7.13972 22.8611 7.34339 21.6875 7.76866 20.589C8.19393 19.4904 8.83217 18.4892 9.64577 17.6443C10.4594 16.7993 11.4318 16.1278 12.5059 15.6693C13.5799 15.2108 14.7337 14.9746 15.8994 14.9746C17.065 14.9746 18.2188 15.2108 19.2929 15.6693C20.3669 16.1278 21.3394 16.7993 22.153 17.6443C22.9666 18.4892 23.6048 19.4904 24.0301 20.589C24.4553 21.6875 24.6591 22.8611 24.6292 24.0406V26.7523C24.6299 26.8392 24.6137 26.9253 24.5814 27.0057C24.5491 27.0862 24.5013 27.1594 24.4409 27.2211C24.3805 27.2827 24.3086 27.3317 24.2294 27.3651C24.1502 27.3985 24.0653 27.4157 23.9795 27.4157ZM8.45738 26.0948H23.3011V24.0406C23.3011 23.0541 23.1092 22.0772 22.7362 21.1657C22.3632 20.2543 21.8165 19.4261 21.1273 18.7285C20.4381 18.0309 19.62 17.4775 18.7195 17.1C17.819 16.7225 16.8539 16.5281 15.8792 16.5281C14.9046 16.5281 13.9395 16.7225 13.039 17.1C12.1385 17.4775 11.3204 18.0309 10.6312 18.7285C9.94201 19.4261 9.39529 20.2543 9.02231 21.1657C8.64933 22.0772 8.45738 23.0541 8.45738 24.0406V26.0948Z" fill="#fff"></path>
            <path d="M15.8579 13.9968C14.93 13.9968 14.0231 13.7183 13.2516 13.1965C12.4802 12.6748 11.8789 11.9332 11.5238 11.0655C11.1688 10.1979 11.0759 9.24313 11.2569 8.32203C11.4379 7.40093 11.8846 6.55485 12.5407 5.89077C13.1968 5.2267 14.0327 4.77446 14.9427 4.59124C15.8527 4.40803 16.7959 4.50205 17.6531 4.86145C18.5103 5.22084 19.2429 5.82945 19.7584 6.61032C20.2739 7.39119 20.549 8.30925 20.549 9.24839C20.5475 10.5073 20.0528 11.7141 19.1733 12.6043C18.2939 13.4945 17.1016 13.9952 15.8579 13.9968ZM15.8579 5.82094C15.1882 5.82094 14.5335 6.02196 13.9766 6.39857C13.4198 6.77518 12.9858 7.31047 12.7295 7.93676C12.4732 8.56304 12.4061 9.25219 12.5368 9.91705C12.6674 10.5819 12.99 11.1926 13.4636 11.672C13.9371 12.1513 14.5404 12.4777 15.1973 12.61C15.8541 12.7422 16.535 12.6744 17.1537 12.4149C17.7724 12.1555 18.3012 11.7162 18.6733 11.1526C19.0454 10.5889 19.244 9.92628 19.244 9.24839C19.2425 8.33985 18.8853 7.46895 18.2506 6.82651C17.6159 6.18408 16.7555 5.82248 15.8579 5.82094Z" fill="#fff"></path>
        </svg>